<?xml version="1.0" standalone="no"?>
<!DOCTYPE svg PUBLIC "-//W3C//DTD SVG 20010904//EN"
 "http://www.w3.org/TR/2001/REC-SVG-20010904/DTD/svg10.dtd">
<svg version="1.0" xmlns="http://www.w3.org/2000/svg"
 width="739.000000pt" height="758.000000pt" viewBox="0 0 739.000000 758.000000"
 preserveAspectRatio="xMidYMid meet">

<g transform="translate(0.000000,758.000000) scale(0.100000,-0.100000)"
fill="#000000" stroke="none">
<path d="M1160 7471 c-146 -53 -279 -104 -296 -113 -35 -19 -761 -663 -793
-704 -12 -15 -21 -41 -21 -61 0 -42 9 -52 367 -413 l263 -266 0 -841 c0 -533
4 -851 10 -868 22 -57 -25 -55 1245 -55 1299 0 1225 -4 1244 67 7 25 11 313
11 868 l0 830 315 323 c328 335 331 339 309 397 -4 9 -104 102 -223 208 -119
105 -283 251 -364 325 -158 142 -234 197 -319 230 -174 68 -485 172 -515 172
-40 0 -79 -34 -88 -77 -36 -171 -56 -214 -130 -282 -128 -118 -309 -132 -451
-35 -85 58 -129 131 -160 270 -21 94 -45 124 -101 123 -22 0 -150 -41 -303
-98z m230 -145 c0 -7 18 -50 41 -95 114 -228 324 -336 582 -302 204 27 355
143 436 336 15 36 30 68 34 71 10 10 420 -145 446 -170 14 -13 163 -146 331
-296 168 -151 305 -277 305 -281 0 -4 -83 -87 -185 -185 l-185 -178 -6 139
c-6 175 -21 205 -99 205 -39 0 -66 -14 -82 -43 -10 -17 -14 -252 -18 -1097
l-5 -1075 -1055 0 -1055 0 -5 1083 -5 1084 -28 24 c-40 34 -90 32 -128 -5
l-29 -29 0 -146 c0 -80 -3 -146 -6 -146 -9 0 -384 364 -382 371 3 5 516 465
628 563 37 31 84 53 245 112 110 40 206 73 213 74 6 0 12 -6 12 -14z"/>
<path d="M5275 7266 c-39 -18 -80 -62 -99 -108 -13 -30 -16 -84 -16 -288 l0
-250 -53 0 c-73 0 -195 -33 -270 -72 -78 -41 -186 -147 -222 -217 -62 -124
-59 -69 -62 -971 -3 -773 -2 -827 14 -859 10 -19 31 -44 46 -55 28 -21 31 -21
1157 -21 1126 0 1129 0 1157 21 15 11 36 36 46 55 16 32 17 86 15 854 -3 818
-3 820 -25 886 -47 137 -146 250 -277 314 -77 38 -183 65 -258 65 l-48 0 0
250 c0 204 -3 258 -15 288 -20 47 -50 79 -97 103 -35 18 -64 19 -500 19 -365
-1 -469 -4 -493 -14z m875 -411 l0 -195 -380 0 -380 0 0 195 0 195 380 0 380
0 0 -195z m382 -472 c115 -54 199 -150 232 -262 14 -48 16 -144 16 -753 l0
-699 -25 -24 -24 -25 -964 0 -964 0 -22 23 -22 24 3 724 3 724 27 57 c29 63
101 146 156 180 19 12 60 32 91 45 l56 23 685 -3 685 -2 67 -32z"/>
<path d="M5249 5855 c-49 -27 -54 -57 -54 -340 0 -284 1 -291 58 -325 31 -19
54 -20 517 -20 467 0 486 1 518 20 18 11 37 32 42 46 6 14 10 144 10 296 l0
270 -34 34 -34 34 -499 0 c-411 -1 -503 -3 -524 -15z"/>
<path d="M4047 3842 c-14 -15 -17 -41 -17 -134 0 -99 3 -117 18 -131 17 -16
145 -17 1678 -15 l1659 3 0 145 0 145 -1661 3 c-1599 2 -1661 1 -1677 -16z"/>
<path d="M1140 3381 c-5 -11 -10 -49 -10 -84 0 -69 12 -89 60 -100 55 -13 117
-64 144 -118 26 -52 26 -56 26 -264 0 -174 3 -214 16 -233 l15 -22 434 0 c381
0 435 2 449 16 14 13 16 47 16 215 0 114 5 219 11 244 7 26 27 63 49 88 34 38
62 55 148 88 20 8 22 15 22 87 0 47 -5 83 -12 90 -9 9 -175 12 -685 12 -654 0
-673 -1 -683 -19z"/>
<path d="M4198 2974 c-65 -35 -63 -71 12 -219 76 -151 103 -246 129 -460 12
-94 30 -242 41 -330 46 -373 133 -569 349 -785 117 -117 259 -217 451 -319 63
-33 121 -64 127 -69 9 -6 -6 -84 -62 -321 -41 -172 -75 -328 -75 -346 0 -49
39 -85 90 -85 51 0 76 13 94 48 7 15 33 112 57 215 l44 189 55 -6 c390 -42
594 -22 809 80 175 83 258 155 485 424 216 256 312 343 468 421 83 42 98 59
98 111 0 53 -26 77 -144 134 -214 102 -398 139 -651 130 -222 -7 -342 -36
-530 -126 -110 -53 -208 -116 -300 -193 l-60 -50 -8 124 c-19 300 -95 533
-250 767 -243 368 -632 612 -1070 671 -101 14 -126 13 -159 -5z m457 -281
c420 -167 734 -567 811 -1032 24 -146 16 -349 -20 -485 -31 -120 -54 -170 -81
-174 -24 -3 -175 76 -295 156 -98 65 -231 189 -297 277 -82 109 -145 255 -178
412 -8 40 -26 184 -40 320 -32 299 -63 463 -110 575 -6 15 -2 16 57 2 34 -8
103 -31 153 -51z m2190 -1119 c82 -17 166 -43 180 -55 6 -6 0 -16 -15 -26 -57
-38 -192 -179 -330 -343 -81 -96 -179 -205 -217 -241 -211 -199 -468 -274
-823 -239 -121 11 -135 24 -114 102 74 285 299 550 589 695 238 119 489 156
730 107z"/>
<path d="M1300 2342 c-46 -23 -622 -648 -618 -671 4 -21 236 -99 423 -140 241
-54 389 -72 642 -78 343 -8 564 17 898 102 209 53 329 95 332 115 4 23 -580
651 -625 672 -33 16 -85 17 -527 18 -447 0 -493 -2 -525 -18z"/>
<path d="M623 1336 c17 -312 132 -652 312 -921 99 -149 255 -321 320 -354 l49
-26 508 -3 c354 -2 521 1 550 9 29 7 62 30 111 77 315 304 514 726 557 1181
16 167 14 168 -108 127 -92 -31 -363 -100 -472 -120 -272 -49 -623 -68 -875
-47 -275 23 -556 77 -791 152 -179 57 -168 62 -161 -75z"/>
</g>
</svg>
